<?xml version="1.0" encoding="UTF-8"?>
<svg width="40px" height="30px" viewBox="0 0 40 30" version="1.1" xmlns="http://www.w3.org/2000/svg" xmlns:xlink="http://www.w3.org/1999/xlink">
    <!-- Generator: Sketch 3.6.1 (26313) - http://www.bohemiancoding.com/sketch -->
    <title>HR LOGO</title>
    <defs></defs>
    <g id="Page-1" stroke="none" stroke-width="1" fill="none" fill-rule="evenodd">
        <g id="hrlogo" fill="#FFFFFF">
            <g id="Page-1">
                <g id="Artboard">
                    <g id="Group">
                        <path d="M30.3033595,15.1607967 C31.9769077,13.2495022 33.1703013,11.1564017 33.6691025,9.19382853 C33.9534659,8.10299213 34.0233913,7.0447876 33.8369235,6.07981699 C33.0211271,1.81902877 27.5716069,1.00789403 21.6512557,4.23378621 L20.8401209,0.0336 L14.5701426,3.49257687 L15.5863919,8.760291 C16.2390291,8.35006193 16.8823428,8.09366873 17.4743779,8.03306673 C19.4695829,7.82329053 20.0289862,10.0003015 18.737697,12.8858901 C18.2761893,13.8974777 17.6421989,14.8764334 16.9289597,15.7248617 L18.1176917,21.9016061 L18.1223534,21.9109295 L18.1363385,22.0181485 C19.0453688,26.1996879 24.4995507,26.9688674 30.4105785,23.7010199 C36.2610043,20.4704661 40.3679567,14.5034979 39.7665982,10.2333863 C39.5288518,11.9488896 37.8413186,14.0513135 35.5803971,15.2913241 C33.1796247,16.6152452 30.9606584,16.526673 30.3080213,15.1794435 C30.3080213,15.1701201 30.3033595,15.1701201 30.3033595,15.1607967" id="Fill-4"></path>
                        <path d="M12.7707288,18.4939079 C10.7755238,18.689699 10.2114588,16.5126879 11.5074097,13.6224377 C12.0295195,12.475661 12.7707288,11.3894863 13.5958486,10.4757943 L12.4723804,4.65333866 L0.1422,11.4640735 L3.70373414,29.9849833 L16.0339145,23.1835719 L14.9524015,17.5522457 C14.2018688,18.0743554 13.4466744,18.4239825 12.7707288,18.4939079" id="Fill-5"></path>
                    </g>
                </g>
            </g>
        </g>
    </g>
</svg>